<?xml version="1.0" encoding="utf-8"?>
<!-- Generator: Adobe Illustrator 28.5.0, SVG Export Plug-In . SVG Version: 9.03 Build 54727)  -->
<svg version="1.1" id="Camada_1" xmlns="http://www.w3.org/2000/svg" xmlns:xlink="http://www.w3.org/1999/xlink" x="0px" y="0px"
	 viewBox="0 0 697 586" style="enable-background:new 0 0 697 586;" xml:space="preserve">
<style type="text/css">
	.st0{fill: #ffff;}
	.st1{fill: #FF5733;}
	.st2{fill: #000;}
</style>
<g id="Contorno">
	<path class="st1" d="M100,264.1c-11.7-24.7-26.7-22.5-41.8-44.4c-24-34.6-20.7-89.3,2.8-124.6c16.3-24.5,39.9-36,57-43
		c101.1-41.7,332.8-77.3,403,24c13.1,18.9,32.6,59.9,81,91c22.2,14.3,24.9,10,38,21c47.5,40.1,55.5,133.9,20,191
		c-14.7,23.7-25.2,22.2-34,46c-12.9,35,3,56.6-9,95c-6.5,20.9-18.6,37.9-28,47c-57.9,56.1-165.7-42.6-323-12
		c-58.2,11.3-79.1,31.8-114,17c-46.9-19.9-81.5-87.3-74-144c4.3-32.4,19.9-42.5,27-98C110,291.6,105.2,275.1,100,264.1z"/>
</g>
<g id="Dev">
	<g>
		<path class="st2" d="M358.1,375.3h31.3c23.6,0,34.9,9.2,34.9,37.1v44.1c0,25-6.5,38.7-30.8,38.7h-35.5L358.1,375.3L358.1,375.3z
			 M386.7,473.7h2.5c4.5,0,6.1-2.5,6.1-7.9v-61.4c0-6.3-2.3-7.7-6.3-7.7h-2.3V473.7z"/>
		<path class="st2" d="M485.7,443.9h-22v27.7h26.5l-3.2,23.6h-51.8V375.3h51.7v23.6h-23v21.4h22V443.9L485.7,443.9z"/>
		<path class="st2" d="M506.2,495.1l-12.4-119.9h29.7l1.3,38.9c0.5,14.4,1.6,34.4,2,51.7h2c0.2-18.9,1.1-35.8,1.4-51.8l0.7-38.7
			h28.8l-13,119.9H506.2L506.2,495.1z"/>
	</g>
</g>
<g id="FullStack">
	<g>
		<path class="st0" d="M190.8,383.7h24v10.7h-11v10.7h10.1v10.7h-10.1v22.5h-13C190.8,438.3,190.8,383.7,190.8,383.7z"/>
		<path class="st0" d="M231.6,383.7v42.1c0,2,0.5,3,1.7,3c1.5,0,1.9-1,1.9-3v-42.1h13.4v40.5c0,11.6-5.4,14.8-15.4,14.8
			s-14.8-4.3-14.8-15v-40.3H231.6z"/>
		<path class="st0" d="M253.7,383.7h13v43.5H279l-1.3,11.1h-23.9L253.7,383.7L253.7,383.7z"/>
		<path class="st0" d="M281.9,383.7h13v43.5h12.2l-1.3,11.1h-23.9L281.9,383.7L281.9,383.7z"/>
		<path class="st0" d="M202.6,477.4v4.4c0,3.3,0.6,4.1,1.8,4.1c1.1,0,1.6-1.1,1.6-3.2c0-4.1-0.5-5.3-5.5-10
			c-6.6-6.2-9.8-9.4-9.8-17.4c0-8.8,3.3-15.5,13.9-15.5c11.6,0,13.7,7.1,13.7,14.5v3.4h-11.5v-4.2c0-2.8-0.5-3.5-1.7-3.5
			c-1,0-1.6,0.8-1.6,3.3c0,2.9,0.5,4,4.6,7.7c7.5,6.6,11,10.1,11,18.8c0,10-3,16.3-14.6,16.3c-10.3,0-14.3-5.7-14.3-15.4v-3.3
			L202.6,477.4L202.6,477.4z"/>
		<path class="st0" d="M227.5,451.5H221v-10.7h25.9v10.7h-6.5v43.9h-13L227.5,451.5L227.5,451.5z"/>
		<path class="st0" d="M260.1,483.8l-0.7,11.5h-13.3l5.8-54.6h20.7l5.7,54.6H265l-0.7-11.5H260.1L260.1,483.8z M263.8,473
			c-0.2-4.2-1.2-18.5-1.5-21.4h-0.6c-0.1,2.4-0.9,16.1-1.1,21.4H263.8z"/>
		<path class="st0" d="M311.4,475.1v4.4c0,8.5-1.8,16.7-15.2,16.7c-7.3,0-14.5-2.5-14.5-15.6v-25.5c0-11.6,6.4-15.2,14.8-15.2
			c13.4,0,14.9,8.9,14.9,15.1v5.1h-13.2v-6.5c0-2.2-0.2-3.5-1.7-3.5c-1.5,0-1.8,1.1-1.8,3.5v28.6c0,2.7,0.3,3.7,1.6,3.7
			c1.5,0,1.9-1,1.9-3.9v-6.9L311.4,475.1L311.4,475.1z"/>
		<path class="st0" d="M315.7,440.7h12.4v23h0.3c1.1-4.5,3.4-15.3,5.1-23h14.1l-7.9,21.2l8,33.4h-13.9l-3.1-21.3l-2.5,6.4v14.9
			h-12.4V440.7z"/>
	</g>
</g>
<g id="Name">
	<g>
		<path class="st0" d="M121.2,103.6h28.6v95.6h26.8l-2.9,24.3h-52.6V103.6z"/>
		<path class="st0" d="M211.4,103.6v92.5c0,4.3,1.1,6.7,3.8,6.7c3.2,0,4.1-2.2,4.1-6.7v-92.5h29.3v88.9c0,25.4-11.9,32.4-33.8,32.4
			s-32.4-9.4-32.4-32.9v-88.4C182.4,103.6,211.4,103.6,211.4,103.6z"/>
		<path class="st0" d="M325.2,179v9.5c0,18.5-4,36.7-33.5,36.7c-16,0-31.9-5.6-31.9-34.2v-56c0-25.6,14-33.3,32.6-33.3
			c29.3,0,32.8,19.6,32.8,33.1v11.2h-29v-14.2c0-4.9-0.4-7.7-3.8-7.7c-3.2,0-4,2.3-4,7.7v62.8c0,5.9,0.7,8.1,3.6,8.1
			c3.2,0,4.1-2.2,4.1-8.6V179C296.2,179,325.2,179,325.2,179z"/>
		<path class="st0" d="M360.8,198.3l-1.4,25.2h-29.2L343,103.6h45.5l12.6,119.9h-29.5l-1.4-25.2H360.8L360.8,198.3z M368.9,174.5
			c-0.5-9.2-2.7-40.5-3.2-47h-1.3c-0.2,5.2-2,35.3-2.5,47H368.9z"/>
		<path class="st0" d="M434.8,184.2v9.7c0,7.2,1.3,9,4,9c2.5,0,3.4-2.5,3.4-7c0-9-1.1-11.7-12.1-22c-14.6-13.7-21.4-20.7-21.4-38.2
			c0-19.3,7.2-34,30.4-34c25.6,0,30.1,15.7,30.1,31.9v7.4H444v-9.2c0-6.1-1.1-7.7-3.8-7.7c-2.2,0-3.4,1.8-3.4,7.2
			c0,6.3,1.1,8.8,10.1,16.9c16.4,14.6,24.1,22.1,24.1,41.2c0,22-6.7,35.8-32,35.8c-22.7,0-31.3-12.4-31.3-33.8v-7.2L434.8,184.2
			L434.8,184.2z"/>
		<path class="st0" d="M221.8,313v9.5c0,18.5-4,36.7-33.5,36.7c-16,0-31.9-5.6-31.9-34.2v-56c0-25.6,14-33.3,32.6-33.3
			c29.3,0,32.8,19.6,32.8,33.1v11.2h-29v-14.2c0-4.9-0.4-7.7-3.8-7.7c-3.2,0-4,2.3-4,7.7v62.8c0,5.9,0.7,8.1,3.6,8.1
			c3.2,0,4.1-2.2,4.1-8.6V313L221.8,313L221.8,313z"/>
		<path class="st0" d="M297.6,268.9v57.2c0,24.3-13.3,33.1-34.2,33.1c-20.9,0-32-9.5-32-33.1v-58.7c0-22.1,13.7-31.7,32.8-31.7
			C283.2,235.8,297.6,245.5,297.6,268.9L297.6,268.9z M260,265.5v64.1c0,4.5,1.3,7.2,4.3,7.2c2.7,0,4.3-2.3,4.3-7.2v-64.3
			c0-5.4-1.3-7-4.5-7C261.4,258.3,260,260.1,260,265.5L260,265.5z"/>
		<path class="st0" d="M336.9,306.9v50.6h-28.4V237.6h35.5c23.4,0,30.8,11.9,30.8,30.8v4.3c0,13.5-4.5,20.3-11.5,23.9
			c8.6,4,11,10.6,11,28.1c0,14.4-0.2,28.1,0.4,32.8h-27.7c-1.3-2.2-1.6-10.4-1.6-37.8c0-11.9-1.1-12.8-6.8-12.8L336.9,306.9
			L336.9,306.9z M337,285.7h2.2c4.7,0,6.7-1.6,6.7-9.2V267c0-6.7-1.6-8.1-7.2-8.1H337L337,285.7L337,285.7z"/>
		<path class="st0" d="M413.7,306.9v50.6h-28.4V237.6h35.5c23.4,0,30.8,11.9,30.8,30.8v4.3c0,13.5-4.5,20.3-11.5,23.9
			c8.6,4,11,10.6,11,28.1c0,14.4-0.2,28.1,0.4,32.8h-27.7c-1.3-2.2-1.6-10.4-1.6-37.8c0-11.9-1.1-12.8-6.8-12.8L413.7,306.9
			L413.7,306.9z M413.9,285.7h2.2c4.7,0,6.7-1.6,6.7-9.2V267c0-6.7-1.6-8.1-7.2-8.1h-1.6V285.7L413.9,285.7z"/>
		<path class="st0" d="M500.6,213.3l16,18.7H494l-6.5-7.9l-5.9,7.9h-23l16.7-18.7H500.6L500.6,213.3z M512.7,306.2h-22v27.7h26.5
			l-3.2,23.6h-51.8V237.6h51.7v23.6h-23v21.4h22V306.2L512.7,306.2z"/>
		<path class="st0" d="M553.4,332.3l-1.4,25.2h-29.2l12.8-119.9h45.5l12.6,119.9h-29.5l-1.4-25.2H553.4L553.4,332.3z M561.5,308.5
			c-0.5-9.2-2.7-40.5-3.2-47H557c-0.2,5.2-2,35.3-2.5,47H561.5z"/>
	</g>
</g>
</svg>
